<svg width="19" height="20" viewBox="0 0 19 20" fill="none" xmlns="http://www.w3.org/2000/svg">
<g id="bx:bx-phone" clip-path="url(#clip0_1579_2682)">
<path id="Vector" d="M14.5489 10.3033C14.4634 10.2177 14.362 10.1498 14.2503 10.1035C14.1386 10.0571 14.0188 10.0333 13.8979 10.0333C13.777 10.0333 13.6572 10.0571 13.5455 10.1035C13.4338 10.1498 13.3323 10.2177 13.2469 10.3033L11.7792 11.7709C11.0988 11.5684 9.82905 11.108 9.0243 10.3033C8.21956 9.49851 7.75918 8.22878 7.55661 7.54834L9.0243 6.08065C9.10988 5.99521 9.17778 5.89374 9.2241 5.78204C9.27043 5.67034 9.29427 5.5506 9.29427 5.42967C9.29427 5.30874 9.27043 5.189 9.2241 5.0773C9.17778 4.9656 9.10988 4.86413 9.0243 4.77869L5.34126 1.09565C5.25583 1.01007 5.15436 0.942176 5.04265 0.895852C4.93095 0.849528 4.81121 0.825684 4.69028 0.825684C4.56936 0.825684 4.44962 0.849528 4.33792 0.895852C4.22621 0.942176 4.12474 1.01007 4.03931 1.09565L1.54221 3.59275C1.19232 3.94264 0.995275 4.42328 1.00264 4.91404C1.02382 6.22521 1.37095 10.7793 4.96007 14.3684C8.54919 17.9575 13.1033 18.3037 14.4154 18.3258H14.4411C14.9273 18.3258 15.3868 18.1343 15.7348 17.7863L18.2319 15.2892C18.3175 15.2037 18.3854 15.1023 18.4317 14.9906C18.478 14.8789 18.5019 14.7591 18.5019 14.6382C18.5019 14.5173 18.478 14.3975 18.4317 14.2858C18.3854 14.1741 18.3175 14.0726 18.2319 13.9872L14.5489 10.3033ZM14.4319 16.4834C13.2828 16.4641 9.35117 16.1556 6.26202 13.0655C3.16274 9.96625 2.86258 6.0208 2.84416 4.89471L4.69028 3.04858L7.07137 5.42967L5.88083 6.62021C5.7726 6.72835 5.69303 6.86176 5.6493 7.00837C5.60558 7.15499 5.59907 7.31019 5.63038 7.45994C5.65248 7.56583 6.19297 10.0767 7.72143 11.6052C9.24989 13.1337 11.7608 13.6742 11.8667 13.6963C12.0164 13.7284 12.1717 13.7225 12.3185 13.6789C12.4652 13.6352 12.5986 13.5554 12.7064 13.4467L13.8979 12.2562L16.279 14.6373L14.4319 16.4834Z" fill="#23A6F0"/>
</g>
<defs>
<clipPath id="clip0_1579_2682">
<rect width="18.4154" height="18.4154" fill="white" transform="translate(0.0864258 0.825684)"/>
</clipPath>
</defs>
</svg>
