<svg width="19" height="21" viewBox="0 0 19 21" fill="none" xmlns="http://www.w3.org/2000/svg">
<g id="carbon:send-alt" clip-path="url(#clip0_1579_2690)">
<path id="Vector" fill-rule="evenodd" clip-rule="evenodd" d="M-0.618564 5.25399C-0.492857 4.68905 -0.183835 4.18463 0.257891 3.82335C0.699617 3.46207 1.24786 3.26534 1.81284 3.26538H16.7753C17.3403 3.26534 17.8886 3.46207 18.3303 3.82335C18.772 4.18463 19.081 4.68905 19.2067 5.25399L9.29409 11.4679L-0.618564 5.25399ZM-0.680908 6.71443V15.7994L6.55471 11.2492L-0.680908 6.71443ZM7.74921 11.9999L-0.442755 17.1498C-0.240354 17.5875 0.0790954 17.9573 0.478413 18.2161C0.877731 18.4749 1.34049 18.612 1.81284 18.6115H16.7753C17.2476 18.6116 17.7102 18.4742 18.1093 18.2152C18.5084 17.9562 18.8276 17.5863 19.0297 17.1485L10.8377 11.9986L9.29409 12.9667L7.74921 11.9986V11.9999ZM12.0335 11.2505L19.2691 15.7994V6.71443L12.0335 11.2492V11.2505Z" fill="#23A6F0"/>
</g>
<defs>
<clipPath id="clip0_1579_2690">
<rect width="18.4154" height="19.95" fill="white" transform="translate(0.0864258 0.867188)"/>
</clipPath>
</defs>
</svg>
