<svg width="81" height="48" viewBox="0 0 81 48" fill="none" xmlns="http://www.w3.org/2000/svg">
<g id="fa-brands:aws" clip-path="url(#clip0_1579_2438)">
<path id="Vector" d="M23.2019 17.4856C23.1124 20.2771 24.5195 21.5133 24.5543 22.2983C24.5377 22.4581 24.4828 22.6117 24.3941 22.7461C24.3055 22.8805 24.1856 22.992 24.0446 23.0711L22.4536 24.1754C22.2477 24.3185 22.005 24.4006 21.7538 24.412C21.7004 24.4095 20.7358 24.6376 19.2082 21.2557C18.2762 22.4092 17.0903 23.336 15.7414 23.9651C14.3925 24.5942 12.9163 24.909 11.4258 24.8853C9.40222 24.995 3.91814 23.7465 4.2003 17.9576C4.00267 13.2397 8.43393 10.3089 13.0168 10.5567C13.8994 10.5591 15.7017 10.6023 18.8576 11.3294V9.40431C19.192 6.14322 17.0305 3.61297 13.2878 3.99257C12.9895 3.9938 10.8764 3.93094 7.58994 5.23859C6.6751 5.65516 6.55826 5.58614 6.25372 5.58614C5.33267 5.58614 5.71178 2.93881 5.88828 2.60358C6.53588 1.8148 10.3456 0.342011 14.0846 0.362963C16.5845 0.143742 19.0711 0.908759 21.0068 2.49266C21.7936 3.36535 22.3939 4.38711 22.7714 5.49624C23.1489 6.60537 23.2958 7.77886 23.2031 8.94584L23.2019 17.4856ZM12.46 21.4775C16.491 21.4196 18.1976 19.0163 18.5867 17.7222C18.8925 16.4836 18.8415 15.6997 18.8415 14.3453C17.6395 14.0593 15.9093 13.7475 13.9242 13.745C12.0411 13.6045 8.60173 14.4389 8.73597 17.721C8.58184 19.7903 10.1182 21.5909 12.46 21.4775ZM33.7052 24.3183C32.7282 24.4071 32.2732 23.7194 32.1291 23.0403L25.939 2.74778C25.8184 2.40515 25.7388 2.05144 25.7003 1.69033C25.6775 1.54145 25.7152 1.38967 25.8052 1.26835C25.8951 1.14702 26.03 1.06607 26.1801 1.04328C26.2099 1.03835 25.9153 1.04328 28.9458 1.04328C30.0371 0.934826 30.3926 1.78646 30.5057 2.32135L34.9457 19.6781L39.0674 2.32135C39.1333 1.92449 39.4329 0.957011 40.6585 1.05931H42.7914C43.0612 1.03712 44.1724 0.997681 44.3675 2.33737L48.5216 19.916L53.1045 2.33737C53.1642 2.06869 53.4426 0.936059 54.6806 1.05931H57.1318C57.2375 1.04328 57.8962 0.959475 57.7844 2.11676C57.7309 2.34476 58.2082 0.802953 51.2276 23.0563C51.0847 23.7354 50.6285 24.4231 49.6515 24.3344H47.3283C45.9685 24.4761 45.7734 23.1438 45.7522 23.0095L41.6305 6.10871L37.556 22.9922C37.5361 23.1266 37.3409 24.4588 35.9798 24.3171H33.7052V24.3183ZM67.6985 25.0122C66.9676 25.0135 63.4822 24.9753 60.5687 23.4975C60.2785 23.3757 60.0312 23.1711 59.8584 22.9098C59.6856 22.6485 59.5949 22.3422 59.5979 22.0297V20.7048C59.5979 19.6633 60.3686 19.8544 60.6955 19.9788C61.9434 20.4792 62.7439 20.8588 64.2765 21.162C68.8321 22.0901 70.8358 20.8785 71.3268 20.6099C72.9613 19.6473 73.0906 17.4449 71.9793 16.3024C70.6767 15.2191 70.0552 15.1784 65.3753 13.7142C64.7986 13.5552 59.9435 12.0369 59.9323 7.26106C59.8564 3.78058 63.046 0.337081 68.5735 0.365428C70.1484 0.364195 74.3447 0.874435 75.4808 2.29054C75.6486 2.54812 75.7319 2.85131 75.7195 3.15819V4.40421C75.7195 4.95142 75.5181 5.22503 75.1142 5.22503C74.1558 5.11904 72.4554 3.84837 69.0036 3.90013C68.1472 3.85576 64.0453 4.01229 64.2293 6.97759C64.1758 9.31434 67.5369 10.1906 67.921 10.2917C72.4529 11.6437 73.9681 11.868 75.7667 13.9373C77.8972 16.6795 76.7487 19.8901 76.3074 20.7701C73.9358 25.3906 67.8029 25.0147 67.6985 25.0122ZM72.6953 37.9358C63.9906 44.3101 51.3544 47.7031 40.5652 47.7031C26.0074 47.7983 11.9402 42.4907 1.12887 32.8236C0.3172 32.0977 1.03316 31.1031 2.0201 31.6564C14.013 38.4586 27.5916 42.0327 41.408 42.0239C51.7257 41.9691 61.9309 39.8937 71.4374 35.9171C72.9016 35.3008 74.1434 36.8784 72.6953 37.9358ZM76.3236 33.833C75.2099 32.4132 68.9551 33.1699 66.1547 33.5014C65.3107 33.5963 65.1677 32.8704 65.9322 32.3343C70.9128 28.8624 79.093 29.857 80.0327 31.0242C80.9711 32.1913 79.7779 40.3182 75.1154 44.2004C74.3994 44.8007 73.7145 44.4839 74.0327 43.6951C75.0818 41.0762 77.4373 35.254 76.3236 33.833Z" fill="#737373"/>
</g>
<defs>
<clipPath id="clip0_1579_2438">
<rect width="79.8" height="47.5731" fill="white" transform="translate(0.652832 0.229828)"/>
</clipPath>
</defs>
</svg>
