<svg width="80" height="28" viewBox="0 0 80 28" fill="none" xmlns="http://www.w3.org/2000/svg">
<g id="fa-brands:hooli" clip-path="url(#clip0_1579_2426)">
<path id="Vector" d="M18.6516 25.4684L23.3812 25.5663C21.7512 25.0029 20.1705 24.317 18.6516 23.5087V25.4684ZM25.7769 24.8192V25.4684L23.3812 25.5663C27.8886 27.0974 32.0131 27.3056 35.0756 26.4482C32.6182 26.4727 29.4198 26.1298 25.7769 24.8192ZM76.2714 10.7094C78.2349 10.7094 79.8402 9.12938 79.8402 7.16969C79.8402 5.20999 78.2472 4.1689 76.2714 4.1689C74.3079 4.1689 72.7026 5.22224 72.7026 7.16969C72.7026 9.11714 74.2956 10.7094 76.2714 10.7094ZM72.6902 25.4684H79.8402V11.9342H72.6902V25.4684ZM63.5891 25.4684H70.7391V1.54781L63.5891 4.89154V25.4684ZM59.761 10.8441C57.5135 8.61496 53.5372 8.74969 53.5372 8.74969C53.5372 8.74969 49.5485 8.61496 47.3133 10.8441C45.0658 13.0733 45.2387 14.9962 45.2387 17.2866C45.2387 19.577 45.0658 21.4877 47.3133 23.7169C49.5608 25.946 53.5372 25.8113 53.5372 25.8113C53.5372 25.8113 57.5258 25.946 59.761 23.7169C62.0085 21.4877 61.8356 19.577 61.8356 17.2866C61.8232 14.984 61.9961 13.061 59.761 10.8441ZM54.8461 19.6505C54.8461 20.0914 54.6239 21.1815 53.5248 21.1815C52.4258 21.1815 52.2035 20.0914 52.2035 19.6505V14.7023C52.2035 13.6367 53.1049 13.3672 53.5248 13.3672C53.9447 13.3672 54.8461 13.6244 54.8461 14.7023V19.6505ZM41.7316 10.8441C39.4841 8.61496 35.5078 8.74969 35.5078 8.74969C35.5078 8.74969 31.5315 8.61496 29.284 10.8441C29.0494 11.0768 28.8271 11.3218 28.6295 11.579C23.9122 7.95357 19.6766 5.88364 16.0213 4.09541V1.56006L13.2428 2.85835C6.52505 0.151522 2.25235 0.629199 1.22739 2.8706C1.22739 2.8706 -1.84747 6.88798 8.85899 16.4415V25.4684H16.009V21.9654C15.2063 21.451 14.4036 20.8998 13.6133 20.2997C11.7857 18.9279 10.2297 17.6541 8.87134 16.4538V12.6568C10.489 14.4573 12.6377 16.5027 15.4656 18.8176L16.0213 19.2586V15.6086C16.0213 14.7635 16.2313 13.3795 17.355 13.3795C18.4787 13.3795 18.664 14.2246 18.664 15.2167V21.1815C20.8868 22.6758 23.2701 23.8884 25.7893 24.807V13.306C25.7893 11.0156 24.1345 8.7252 20.7756 8.7252C18.8245 8.71295 17.0092 9.72954 16.0213 11.4075V4.75681C21.1955 7.31666 26.382 10.4522 28.3578 11.8975C27.0982 13.6857 27.2094 15.3392 27.2094 17.2499C27.2094 19.5403 27.0365 21.451 29.284 23.6801C31.5315 25.9093 35.5078 25.7746 35.5078 25.7746C35.5078 25.7746 39.4965 25.9093 41.7316 23.6801C43.9791 21.451 43.7939 19.5403 43.7939 17.2499C43.7939 14.984 43.9791 13.061 41.7316 10.8441ZM8.85899 4.89154V12.6446C2.84509 5.96937 4.05528 3.33603 4.51219 2.95634C6.17929 1.56006 9.14301 1.97649 12.4649 3.21355L8.85899 4.89154ZM36.8292 19.6505C36.8292 20.0914 36.6069 21.1815 35.5078 21.1815C34.4088 21.1815 34.1865 20.0914 34.1865 19.6505V14.7023C34.1865 13.6367 35.088 13.3672 35.5078 13.3672C35.9277 13.3672 36.8292 13.6244 36.8292 14.7023V19.6505Z" fill="#737373"/>
</g>
<defs>
<clipPath id="clip0_1579_2426">
<rect width="79.0327" height="26.0885" fill="white" transform="translate(0.807617 0.972137)"/>
</clipPath>
</defs>
</svg>
