<svg width="80" height="34" viewBox="0 0 80 34" fill="none" xmlns="http://www.w3.org/2000/svg">
<g id="fa-brands:stripe" clip-path="url(#clip0_1579_2435)">
<path id="Vector" d="M20.53 3.42972L15.183 4.55277L15.1583 21.9358C15.1583 25.1463 17.6033 27.2215 20.8511 27.2215C22.654 27.2215 23.9753 26.8919 24.7039 26.5013V22.3752C24 22.656 20.5424 23.657 20.5424 20.4587V12.7438H24.7039V8.12948H20.5424L20.53 3.42972ZM31.5329 9.72862L31.1994 8.12948H26.4575V26.8309H31.928V14.2453C33.2246 12.5607 35.4104 12.8903 36.1143 13.11V8.12948C35.3733 7.87313 32.8171 7.39705 31.5329 9.72862ZM42.9308 0.902832L37.4233 2.06251V6.48151L42.9308 5.32183V0.902832ZM5.69904 13.6349C5.69904 12.7926 6.41527 12.463 7.56372 12.4508C9.23081 12.4508 11.3548 12.9513 13.0219 13.8424V8.73983C11.2066 8.03182 9.39135 7.75105 7.57606 7.75105C3.13047 7.75105 0.166748 10.046 0.166748 13.8791C0.166748 19.885 8.50223 18.9084 8.50223 21.4963C8.50223 22.4973 7.62546 22.8269 6.40292 22.8269C4.58764 22.8269 2.24136 22.0823 0.401376 21.0935V25.9764C2.43894 26.8431 4.5012 27.2093 6.39057 27.2093C10.9473 27.2093 14.0839 25.2806 14.0839 21.3743C14.0839 14.9167 5.69904 16.0763 5.69904 13.6349ZM79.1871 17.6999C79.1871 12.1456 76.4704 7.76326 71.2591 7.76326C66.0479 7.76326 62.8743 12.1456 62.8743 17.6633C62.8743 24.1941 66.616 27.2093 71.9507 27.2093C74.5686 27.2093 76.5321 26.6233 78.0263 25.8055V21.7283C76.5321 22.4729 74.8156 22.9246 72.6422 22.9246C70.5059 22.9246 68.6288 22.1799 68.3819 19.6408H79.113C79.1377 19.3601 79.1871 18.2248 79.1871 17.6999ZM68.3325 15.6491C68.3325 13.2077 69.8514 12.1823 71.2221 12.1823C72.5681 12.1823 74.0006 13.2077 74.0006 15.6491H68.3325ZM54.3906 7.76326C52.2419 7.76326 50.8588 8.76425 50.0932 9.46006L49.8092 8.11727H44.9808V33.1175L50.4637 31.9701L50.476 25.8421C51.2663 26.4158 52.4395 27.2093 54.3535 27.2093C58.2805 27.2093 61.8617 24.3772 61.8617 17.4924C61.874 11.1935 58.2434 7.76326 54.3906 7.76326ZM53.0816 22.717C51.7973 22.717 51.0317 22.2532 50.5007 21.6916L50.4637 13.6349C51.0317 13.0123 51.822 12.5607 53.0816 12.5607C55.0821 12.5607 56.4652 14.7824 56.4652 17.6144C56.4775 20.532 55.1192 22.717 53.0816 22.717ZM37.4356 26.8309H42.9432V8.12948H37.4356V26.8309Z" fill="#737373"/>
</g>
<defs>
<clipPath id="clip0_1579_2435">
<rect width="79.0327" height="32.2269" fill="white" transform="translate(0.153809 0.902863)"/>
</clipPath>
</defs>
</svg>
