<svg width="64" height="46" viewBox="0 0 64 46" fill="none" xmlns="http://www.w3.org/2000/svg">
<g id="fa-brands:lyft" clip-path="url(#clip0_1579_2429)">
<path id="Vector" d="M0.212402 1.14452H9.88977V27.2442C9.88977 31.3836 11.7556 33.8473 13.2731 34.8728C11.6934 36.2609 6.90446 37.4865 3.29722 34.5226C1.18263 32.7718 0.212402 29.8579 0.212402 27.1442V1.14452ZM60.6524 22.8422V20.0909H63.6129V10.4864H60.3663C59.11 4.69618 53.9977 0.394165 47.8902 0.394165C40.8499 0.394165 35.1156 6.14685 35.1156 13.2377V35.6481C37.1058 35.9358 39.5189 35.6106 41.5465 33.8973C43.6735 32.1465 44.6313 29.2451 44.6313 26.5189V25.681H49.4575V16.0765H44.6313V13.1626C44.6313 8.83561 51.1243 8.83561 51.1243 13.1626V22.8046C51.1243 29.8829 56.8462 35.6481 63.8989 35.6481V26.0812C62.0953 26.0812 60.6524 24.618 60.6524 22.8422ZM24.0451 10.4614V24.593C24.0451 26.5189 21.0847 26.5189 21.0847 24.593V10.4614H11.5317V27.0566C11.5317 30.033 12.5268 33.8098 17.1291 35.0479C21.7315 36.2734 24.3685 33.7222 24.3685 33.7222C24.1073 35.398 22.5649 36.6361 20.0274 36.8862C18.0994 37.0863 15.6489 36.436 14.4299 35.9108V44.7024C17.5521 45.6403 20.8359 45.9279 24.0824 45.2901C29.9411 44.1521 33.6354 39.2373 33.6354 32.6842V10.3988H24.0451V10.4614Z" fill="#737373"/>
</g>
<defs>
<clipPath id="clip0_1579_2429">
<rect width="63.6865" height="45.2712" fill="white" transform="translate(0.212402 0.380829)"/>
</clipPath>
</defs>
</svg>
