<svg width="79" height="58" viewBox="0 0 79 58" fill="none" xmlns="http://www.w3.org/2000/svg">
<g id="fa-brands:pied-piper-hat" clip-path="url(#clip0_1579_2432)">
<path id="Vector" d="M78.5364 0.354156C68.6554 7.01631 67.6037 11.8513 66.7477 13.3304C65.9283 14.8468 65.3169 20.8254 63.8983 23.7214C62.4675 26.6547 57.2702 28.9666 55.815 29.9361C54.3842 30.9056 52.3542 34.6717 50.691 37.9158C37.4715 37.3689 30.2197 42.7384 18.9935 49.5497C22.5889 48.344 24.2887 47.474 24.2887 47.474C35.8084 42.9994 41.3236 38.9847 58.6643 41.3587C58.7988 41.3587 58.8967 41.4333 59.0067 41.4581C59.4836 41.7316 59.6549 42.3158 59.3858 42.8005L52.7944 54.7079C52.4887 55.2921 51.8405 55.6028 51.1924 55.4661C35.6861 52.5079 23.4449 57.6164 12.1942 57.7779C3.21818 57.9147 0.270996 53.6141 0.270996 53.4152C0.270996 53.2785 0.34437 53.2039 0.478889 53.2039C0.478889 53.2039 5.16258 53.2039 13.087 51.3022C22.0875 33.8638 30.1097 27.761 38.8412 27.761C38.8412 27.761 47.6093 27.761 49.9206 35.4548C52.7088 30.5203 53.3814 29.3395 53.3814 29.3395C54.0295 28.1711 57.6615 19.744 63.9472 11.7643C70.2451 3.80953 75.0022 1.83325 78.5364 0.354156Z" fill="#737373"/>
</g>
<defs>
<clipPath id="clip0_1579_2432">
<rect width="78.2654" height="57.5481" fill="white" transform="translate(0.270996 0.24234)"/>
</clipPath>
</defs>
</svg>
