<svg width="59" height="56" viewBox="0 0 59 56" fill="none" xmlns="http://www.w3.org/2000/svg">
<g id="fa-brands:reddit-alien" clip-path="url(#clip0_1579_2441)">
<path id="Vector" d="M52.0144 21.6181C50.1767 21.6181 48.5596 22.381 47.3712 23.5745C42.9976 20.5353 37.1048 18.579 30.5749 18.3698L33.9685 3.01407L44.774 5.45031C44.774 8.10803 46.9302 10.2736 49.5764 10.2736C52.2717 10.2736 54.4401 8.04651 54.4401 5.38879C54.4401 2.73107 52.2839 0.503998 49.5764 0.503998C47.6898 0.503998 46.0604 1.64829 45.2518 3.21094L33.3192 0.553215C32.7189 0.393259 32.1308 0.823909 31.9716 1.42682L28.2472 18.3575C21.7664 18.6282 15.9348 20.5846 11.5489 23.6237C10.3606 22.381 8.68216 21.6181 6.84449 21.6181C0.0328648 21.6181 -2.19684 30.7971 4.03898 33.9347C3.81846 34.9067 3.72046 35.9403 3.72046 36.9738C3.72046 47.2848 15.2855 55.6394 29.4846 55.6394C43.7449 55.6394 55.31 47.2848 55.31 36.9738C55.31 35.9403 55.1997 34.8575 54.9302 33.8855C61.0435 30.7356 58.7893 21.6181 52.0144 21.6181ZM13.9256 34.5868C13.9256 31.8799 16.0818 29.702 18.7893 29.702C21.4356 29.702 23.5918 31.8676 23.5918 34.5868C23.5918 37.2445 21.4356 39.4101 18.7893 39.4101C16.0941 39.4224 13.9256 37.2445 13.9256 34.5868ZM40.1798 46.0913C35.7204 50.57 23.1385 50.57 18.6791 46.0913C18.189 45.6606 18.189 44.8978 18.6791 44.4056C19.1079 43.975 19.8674 43.975 20.2962 44.4056C23.702 47.9123 34.9976 47.9739 38.5504 44.4056C38.9792 43.975 39.7388 43.975 40.1676 44.4056C40.6699 44.8978 40.6699 45.6606 40.1798 46.0913ZM40.0818 39.4224C37.4356 39.4224 35.2794 37.2568 35.2794 34.5991C35.2794 31.8922 37.4356 29.7143 40.0818 29.7143C42.7771 29.7143 44.9455 31.8799 44.9455 34.5991C44.9333 37.2445 42.7771 39.4224 40.0818 39.4224Z" fill="#737373"/>
</g>
<defs>
<clipPath id="clip0_1579_2441">
<rect width="58.3154" height="55.2462" fill="white" transform="translate(0.277832 0.39328)"/>
</clipPath>
</defs>
</svg>
