<svg width="38" height="32" viewBox="0 0 38 32" fill="none" xmlns="http://www.w3.org/2000/svg">
<g id="icn resize icn-md" clip-path="url(#clip0_1579_2317)">
<path id="Vector" fill-rule="evenodd" clip-rule="evenodd" d="M36.0842 30.5711C36.0842 30.5711 38.45 30.5711 38.45 28.184C38.45 25.7968 36.0842 18.6352 26.6207 18.6352C17.1572 18.6352 14.7914 25.7968 14.7914 28.184C14.7914 30.5711 17.1572 30.5711 17.1572 30.5711H36.0842ZM17.2093 28.184H36.0321C36.0432 28.1827 36.0542 28.1811 36.0652 28.1792L36.0842 28.1744C36.0794 27.5442 35.6891 25.7156 34.2861 24.0685C32.9802 22.524 30.6853 21.0224 26.6207 21.0224C22.5585 21.0224 20.2636 22.5263 18.9553 24.0685C17.5523 25.7156 17.1596 27.5466 17.1572 28.1744C17.1746 28.1778 17.1919 28.181 17.2093 28.184ZM26.6207 13.8609C27.8756 13.8609 29.0792 13.3579 29.9665 12.4625C30.8539 11.5671 31.3524 10.3528 31.3524 9.08653C31.3524 7.82029 30.8539 6.60591 29.9665 5.71054C29.0792 4.81518 27.8756 4.31217 26.6207 4.31217C25.3658 4.31217 24.1622 4.81518 23.2749 5.71054C22.3875 6.60591 21.889 7.82029 21.889 9.08653C21.889 10.3528 22.3875 11.5671 23.2749 12.4625C24.1622 13.3579 25.3658 13.8609 26.6207 13.8609ZM33.7183 9.08653C33.7183 10.027 33.5347 10.9583 33.178 11.8271C32.8213 12.696 32.2985 13.4855 31.6395 14.1505C30.9804 14.8155 30.198 15.343 29.3368 15.7029C28.4757 16.0628 27.5528 16.2481 26.6207 16.2481C25.6886 16.2481 24.7657 16.0628 23.9046 15.7029C23.0435 15.343 22.261 14.8155 21.6019 14.1505C20.9429 13.4855 20.4201 12.696 20.0634 11.8271C19.7067 10.9583 19.5231 10.027 19.5231 9.08653C19.5231 7.18717 20.2709 5.3656 21.6019 4.02255C22.933 2.67951 24.7383 1.92499 26.6207 1.92499C28.5031 1.92499 30.3084 2.67951 31.6395 4.02255C32.9705 5.3656 33.7183 7.18717 33.7183 9.08653ZM17.0058 19.3037C16.0594 19.003 15.0839 18.8053 14.0958 18.714C13.5406 18.6608 12.9832 18.6345 12.4255 18.6352C2.96206 18.6352 0.596191 25.7968 0.596191 28.184C0.596191 29.7762 1.38402 30.5711 2.96206 30.5711H12.9365C12.5858 29.8259 12.4109 29.0088 12.4255 28.184C12.4255 25.7729 13.3174 23.3093 15.0043 21.2516C15.5792 20.5498 16.2488 19.8933 17.0058 19.3037ZM12.2362 21.0224C8.28999 21.0702 6.04951 22.5502 4.76011 24.0685C3.34769 25.7252 2.96206 27.5609 2.96206 28.184H10.0597C10.0597 25.6894 10.8238 23.2043 12.2362 21.0224ZM4.14499 10.2801C4.14499 8.38076 4.89277 6.55919 6.22383 5.21614C7.55488 3.87309 9.36019 3.11858 11.2426 3.11858C13.125 3.11858 14.9303 3.87309 16.2613 5.21614C17.5924 6.55919 18.3402 8.38076 18.3402 10.2801C18.3402 12.1795 17.5924 14.001 16.2613 15.3441C14.9303 16.6871 13.125 17.4417 11.2426 17.4417C9.36019 17.4417 7.55488 16.6871 6.22383 15.3441C4.89277 14.001 4.14499 12.1795 4.14499 10.2801ZM11.2426 5.50576C9.98765 5.50576 8.78412 6.00877 7.89675 6.90413C7.00937 7.7995 6.51085 9.01388 6.51085 10.2801C6.51085 11.5464 7.00937 12.7607 7.89675 13.6561C8.78412 14.5515 9.98765 15.0545 11.2426 15.0545C12.4975 15.0545 13.7011 14.5515 14.5884 13.6561C15.4758 12.7607 15.9743 11.5464 15.9743 10.2801C15.9743 9.01388 15.4758 7.7995 14.5884 6.90413C13.7011 6.00877 12.4975 5.50576 11.2426 5.50576Z" fill="#23A6F0"/>
</g>
<defs>
<clipPath id="clip0_1579_2317">
<rect width="36.8308" height="30.3313" fill="white" transform="translate(0.852051 0.901917)"/>
</clipPath>
</defs>
</svg>
