<svg width="37" height="32" viewBox="0 0 37 32" fill="none" xmlns="http://www.w3.org/2000/svg">
<g id="icn resize icn-md" clip-path="url(#clip0_1579_2329)">
<path id="Vector" fill-rule="evenodd" clip-rule="evenodd" d="M35.2438 30.5711C35.2438 30.5711 37.6097 30.5711 37.6097 28.184C37.6097 25.7968 35.2438 18.6352 25.7804 18.6352C16.3169 18.6352 13.9511 25.7968 13.9511 28.184C13.9511 30.5711 16.3169 30.5711 16.3169 30.5711H35.2438ZM16.369 28.184H35.1918C35.2029 28.1827 35.2139 28.1811 35.2249 28.1792L35.2438 28.1744C35.2391 27.5442 34.8487 25.7156 33.4458 24.0685C32.1398 22.524 29.8449 21.0224 25.7804 21.0224C21.7182 21.0224 19.4233 22.5263 18.115 24.0685C16.712 25.7156 16.3193 27.5466 16.3169 28.1744C16.3342 28.1778 16.3516 28.181 16.369 28.184ZM25.7804 13.8609C27.0353 13.8609 28.2388 13.3579 29.1262 12.4625C30.0136 11.5671 30.5121 10.3528 30.5121 9.08653C30.5121 7.82029 30.0136 6.60591 29.1262 5.71054C28.2388 4.81518 27.0353 4.31217 25.7804 4.31217C24.5254 4.31217 23.3219 4.81518 22.4345 5.71054C21.5472 6.60591 21.0486 7.82029 21.0486 9.08653C21.0486 10.3528 21.5472 11.5671 22.4345 12.4625C23.3219 13.3579 24.5254 13.8609 25.7804 13.8609ZM32.878 9.08653C32.878 10.027 32.6944 10.9583 32.3377 11.8271C31.981 12.696 31.4582 13.4855 30.7991 14.1505C30.1401 14.8155 29.3576 15.343 28.4965 15.7029C27.6354 16.0628 26.7124 16.2481 25.7804 16.2481C24.8483 16.2481 23.9254 16.0628 23.0642 15.7029C22.2031 15.343 21.4207 14.8155 20.7616 14.1505C20.1025 13.4855 19.5797 12.696 19.2231 11.8271C18.8664 10.9583 18.6828 10.027 18.6828 9.08653C18.6828 7.18717 19.4306 5.3656 20.7616 4.02255C22.0927 2.67951 23.898 1.92499 25.7804 1.92499C27.6628 1.92499 29.4681 2.67951 30.7991 4.02255C32.1302 5.3656 32.878 7.18717 32.878 9.08653ZM16.1655 19.3037C15.2191 19.003 14.2436 18.8053 13.2555 18.714C12.7003 18.6608 12.1429 18.6345 11.5852 18.6352C2.12172 18.6352 -0.244141 25.7968 -0.244141 28.184C-0.244141 29.7762 0.543693 30.5711 2.12172 30.5711H12.0962C11.7455 29.8259 11.5706 29.0088 11.5852 28.184C11.5852 25.7729 12.4771 23.3093 14.164 21.2516C14.7389 20.5498 15.4084 19.8933 16.1655 19.3037ZM11.3959 21.0224C7.44965 21.0702 5.20918 22.5502 3.91978 24.0685C2.50736 25.7252 2.12172 27.5609 2.12172 28.184H9.21932C9.21932 25.6894 9.98349 23.2043 11.3959 21.0224ZM3.30466 10.2801C3.30466 8.38076 4.05244 6.55919 5.3835 5.21614C6.71455 3.87309 8.51985 3.11858 10.4023 3.11858C12.2847 3.11858 14.09 3.87309 15.421 5.21614C16.7521 6.55919 17.4998 8.38076 17.4998 10.2801C17.4998 12.1795 16.7521 14.001 15.421 15.3441C14.09 16.6871 12.2847 17.4417 10.4023 17.4417C8.51985 17.4417 6.71455 16.6871 5.3835 15.3441C4.05244 14.001 3.30466 12.1795 3.30466 10.2801ZM10.4023 5.50576C9.14732 5.50576 7.94379 6.00877 7.05641 6.90413C6.16904 7.7995 5.67052 9.01388 5.67052 10.2801C5.67052 11.5464 6.16904 12.7607 7.05641 13.6561C7.94379 14.5515 9.14732 15.0545 10.4023 15.0545C11.6572 15.0545 12.8607 14.5515 13.7481 13.6561C14.6355 12.7607 15.134 11.5464 15.134 10.2801C15.134 9.01388 14.6355 7.7995 13.7481 6.90413C12.8607 6.00877 11.6572 5.50576 10.4023 5.50576Z" fill="white"/>
</g>
<defs>
<clipPath id="clip0_1579_2329">
<rect width="36.8308" height="30.3313" fill="white" transform="translate(0.0117188 0.901917)"/>
</clipPath>
</defs>
</svg>
